<?xml version="1.0" standalone="no"?>
<!DOCTYPE svg PUBLIC "-//W3C//DTD SVG 20010904//EN"
 "http://www.w3.org/TR/2001/REC-SVG-20010904/DTD/svg10.dtd">
<svg version="1.0" xmlns="http://www.w3.org/2000/svg"
 width="120.000000pt" height="120.000000pt" viewBox="0 0 120.000000 120.000000"
 preserveAspectRatio="xMidYMid meet">
<metadata>
Created by potrace 1.14, written by Peter Selinger 2001-2017
</metadata>
<g transform="translate(0.000000,120.000000) scale(0.100000,-0.100000)"
fill="#000000" stroke="none">
<path d="M720 1131 c-51 -21 -55 -28 -42 -74 12 -44 -3 -66 -38 -56 -40 11
-67 10 -73 -3 -3 -7 -12 -30 -21 -50 l-16 -38 39 -25 c24 -17 38 -33 36 -43
-2 -9 -4 -19 -4 -22 -1 -3 -17 -14 -36 -24 -19 -11 -35 -23 -35 -27 0 -16 40
-99 47 -99 5 0 22 4 40 9 41 12 65 -4 59 -39 -2 -14 -5 -31 -5 -37 -2 -22 -21
-14 -52 22 -17 19 -35 35 -41 35 -5 0 -25 -12 -43 -26 -54 -41 -78 -25 -87 56
-3 23 -7 25 -65 28 -61 3 -63 2 -64 -23 -1 -14 -3 -29 -4 -35 -1 -5 -3 -16 -4
-24 -2 -28 -40 -29 -76 -2 -18 14 -38 26 -42 26 -5 0 -26 -18 -48 -40 l-38
-39 26 -39 c36 -55 28 -78 -31 -89 l-47 -8 0 -60 0 -60 47 -9 c60 -12 68 -35
28 -88 l-28 -39 44 -41 44 -41 38 26 c54 38 78 29 86 -34 l7 -49 59 0 c64 0
68 4 73 69 3 38 42 46 81 16 18 -14 37 -25 42 -25 6 0 27 18 48 39 l38 39 -27
36 c-20 26 -26 43 -21 61 5 21 14 25 57 31 l50 7 -3 61 -3 61 -45 7 c-65 11
-76 31 -42 79 15 21 30 39 34 39 3 0 28 -9 55 -21 l48 -20 18 23 c41 52 47 57
62 52 8 -3 24 -21 36 -40 11 -19 24 -34 27 -34 4 0 28 8 54 17 51 18 50 17 32
87 -10 39 15 58 59 45 42 -12 54 -11 60 4 3 6 12 29 21 49 l16 38 -40 26 c-22
15 -40 34 -40 43 0 10 18 28 41 40 22 13 38 28 36 35 -39 96 -39 96 -63 91
-13 -3 -35 -7 -48 -10 -34 -7 -48 14 -36 56 15 51 14 53 -40 76 l-50 21 -25
-36 c-34 -50 -59 -51 -86 -2 -13 22 -25 40 -28 39 -3 0 -26 -8 -51 -18z m155
-205 c79 -33 79 -139 -1 -172 -29 -12 -39 -12 -68 0 -78 33 -80 138 -3 171 40
18 32 17 72 1z m-446 -461 c16 -8 34 -27 41 -44 40 -96 -77 -175 -151 -102
-40 41 -40 91 0 132 33 32 67 37 110 14z"/>
</g>
</svg>
